Coordinates
version=1
nRows=4
nColumns=114
inDegrees=yes

Units are S.I. units (second, meters, Newtons, ...)
If the header above contains a line with 'inDegrees', this indicates whether rotational values are in degrees (yes) or radians (no).

endheader 
time	pelvis_tilt	pelvis_list	pelvis_rotation	pelvis_tx	pelvis_ty	pelvis_tz	hip_flexion_l	hip_adduction_l	hip_rotation_l	hip_flexion_r	hip_adduction_r	hip_rotation_r	knee_angle_l	knee_angle_r	ankle_angle_l	ankle_angle_r	subtalar_angle_l	subtalar_angle_r	mtp_angle_l	mtp_angle_r	lumbar_extension	lumbar_bending	lumbar_rotation	arm_flex_l	arm_add_l	arm_rot_l	arm_flex_r	arm_add_r	arm_rot_r	elbow_flex_l	elbow_flex_r	pro_sup_l	pro_sup_r	addbrev_l/activation	addlong_l/activation	addmagDist_l/activation	addmagIsch_l/activation	addmagMid_l/activation	addmagProx_l/activation	bflh_l/activation	bfsh_l/activation	edl_l/activation	ehl_l/activation	fdl_l/activation	fhl_l/activation	gaslat_l/activation	gasmed_l/activation	glmax1_l/activation	glmax2_l/activation	glmax3_l/activation	glmed1_l/activation	glmed2_l/activation	glmed3_l/activation	glmin1_l/activation	glmin2_l/activation	glmin3_l/activation	grac_l/activation	iliacus_l/activation	perbrev_l/activation	perlong_l/activation	piri_l/activation	psoas_l/activation	recfem_l/activation	sart_l/activation	semimem_l/activation	semiten_l/activation	soleus_l/activation	tfl_l/activation	tibant_l/activation	tibpost_l/activation	vasint_l/activation	vaslat_l/activation	vasmed_l/activation	addbrev_r/activation	addlong_r/activation	addmagDist_r/activation	addmagIsch_r/activation	addmagMid_r/activation	addmagProx_r/activation	bflh_r/activation	bfsh_r/activation	edl_r/activation	ehl_r/activation	fdl_r/activation	fhl_r/activation	gaslat_r/activation	gasmed_r/activation	glmax1_r/activation	glmax2_r/activation	glmax3_r/activation	glmed1_r/activation	glmed2_r/activation	glmed3_r/activation	glmin1_r/activation	glmin2_r/activation	glmin3_r/activation	grac_r/activation	iliacus_r/activation	perbrev_r/activation	perlong_r/activation	piri_r/activation	psoas_r/activation	recfem_r/activation	sart_r/activation	semimem_r/activation	semiten_r/activation	soleus_r/activation	tfl_r/activation	tibant_r/activation	tibpost_r/activation	vasint_r/activation	vaslat_r/activation	vasmed_r/activation	
          5.10000000	          7.11848049	          0.95450517	        -39.20397843	         -3.12309364	          0.89711468	          0.26314477	         37.38867100	        -21.46113478	          6.83235584	          7.14364674	        -36.46460408	          8.14429196	         31.76435790	         58.13589845	        -12.91609535	         -1.15335993	        -34.90036056	        -34.99876546	          0.04807355	          0.11926251	         18.02739710	          6.67264184	        -40.19498834	       -361.91177925	        -53.47317223	       -437.94171616	         12.36610970	       -162.20397684	         47.60371364	         85.74347883	         69.66759764	         90.38732711	         79.84903426	          0.05236488	          0.22373464	          0.01442939	          0.01202024	          0.02498777	          0.37029099	          0.39920066	          0.07672526	          0.28315035	          0.13091506	          0.01467732	          0.01443261	          0.18211794	          0.22680996	          0.01199160	          0.07641809	          0.31290832	          0.01000736	          0.01001640	          0.01004192	          0.01002945	          0.01004601	          0.01192052	          0.20424269	          0.05317269	          0.05666009	          0.16675688	          0.29744082	          0.57140864	          0.16458194	          0.34911031	          0.10718330	          0.10788760	          0.01442150	          0.01044757	          0.32035764	          0.01451577	          0.01322436	          0.01355792	          0.01424403	          0.01007621	          0.01002857	          0.01217056	          0.01759216	          0.01042265	          0.01006479	          0.04528672	          0.11549432	          0.15815576	          0.04035836	          0.03436450	          0.03816762	          0.03678596	          0.03141818	          0.35517279	          0.31019337	          0.02840481	          0.09886139	          0.22075058	          0.21982137	          0.07325030	          0.05544633	          0.25580851	          0.01005475	          0.17457295	          0.10408347	          0.12253139	          0.15169693	          0.01870936	          0.08399252	          0.34749538	          0.10358365	          0.01049365	          0.02960563	          0.16813516	          0.13388106	          0.02286804	          0.03246386	          0.03270937	          0.03096647	
          5.11000000	          7.00650232	          0.89217816	        -37.62495191	         -3.10470255	          0.89421612	          0.26289045	         37.68199286	        -20.98030724	          6.48934173	          3.70352480	        -37.09547325	          6.28960218	         32.74612181	         56.11228397	        -14.40206842	         -2.10139322	        -34.75615883	        -34.95408247	          0.09371376	          0.11647790	         18.19948015	          5.39586321	        -46.89909906	       -428.11867682	        -65.75076464	       -457.78788892	        -17.26753993	       -160.16995443	         59.89314296	         92.67523476	         52.60072059	         90.21645540	         75.07633364	          0.04364497	          0.18644909	          0.01202828	          0.01002538	          0.02082663	          0.30859098	          0.33267555	          0.69222055	          0.32758736	          0.13307098	          0.01227472	          0.01204607	          0.15801060	          0.18901942	          0.01001878	          0.06368296	          0.26075802	          0.01000323	          0.01000549	          0.01000783	          0.01001496	          0.01002423	          0.01011231	          0.17047778	          0.43713914	          0.21642244	          0.23047810	          0.24868584	          0.85713292	          0.13715273	          0.78302857	          0.08940010	          0.09700647	          0.01201912	          0.01055601	          0.27422069	          0.01210593	          0.01102139	          0.01129860	          0.01187079	          0.01002860	          0.01001411	          0.01015288	          0.01466605	          0.01001498	          0.01002267	          0.03774825	          0.32035227	          0.16756672	          0.05467848	          0.02935293	          0.03186633	          0.04433443	          0.02620079	          0.29599154	          0.25850153	          0.02367680	          0.08264854	          0.18397619	          0.18319834	          0.06179254	          0.04641436	          0.21321296	          0.01004566	          0.14548283	          0.08675156	          0.10211718	          0.31418780	          0.01559589	          0.06999520	          0.29138415	          0.22633375	          0.01243344	          0.02467227	          0.15973694	          0.13345683	          0.01907719	          0.02705499	          0.02725836	          0.02580663	
          5.12000000	          6.96034775	          0.74356004	        -35.97569474	         -3.08778252	          0.89237816	          0.26140840	         38.18187131	        -20.22886569	          6.45739943	          0.09315352	        -37.60193816	          3.78329482	         34.55371667	         53.75044657	        -14.76225161	         -3.07599600	        -34.02650459	        -34.97708006	          0.15675307	          0.12041322	         18.34286322	          2.91453964	        -49.89109053	       -504.77569523	        -66.59853065	       -499.05697768	        -53.21545075	       -161.66992923	        102.58750105	         97.63981239	         43.22058374	         90.35248663	         71.62734295	          0.03637724	          0.15537862	          0.01003189	          0.01000922	          0.01735910	          0.25716632	          0.28192888	          0.57750374	          0.31558956	          0.11099439	          0.01026064	          0.01005806	          0.13168135	          0.15751842	          0.01000662	          0.05307068	          0.21729945	          0.01000774	          0.01000918	          0.01000772	          0.01004471	          0.01006033	          0.01012190	          0.14209442	          0.55819046	          0.18335567	          0.19219041	          0.34959775	          0.80056842	          0.11429855	          0.92766782	          0.12802050	          0.08095851	          0.01001802	          0.05466523	          0.32245840	          0.01009568	          0.01000172	          0.01000055	          0.01000125	          0.01004171	          0.01001995	          0.01005437	          0.01223234	          0.01003298	          0.01004872	          0.03146660	          0.33928963	          0.18624882	          0.04562096	          0.04220751	          0.03708112	          0.03706425	          0.03991037	          0.24666440	          0.21542051	          0.01973590	          0.06903918	          0.15332299	          0.15267182	          0.05183308	          0.03877518	          0.26640220	          0.01015537	          0.12125463	          0.07232327	          0.08605982	          0.44809883	          0.01301027	          0.05833043	          0.28630079	          0.18861464	          0.03379920	          0.02056190	          0.13351393	          0.11122643	          0.01602642	          0.02254775	          0.02271589	          0.02150682	
          5.13000000	          6.87991028	          0.91948569	        -34.31345307	         -3.07217081	          0.89426980	          0.25930473	         39.06569182	        -18.79334713	          7.08027442	         -3.34608645	        -37.89183750	          1.12711361	         37.36621490	         50.90281585	        -14.09273902	         -4.68034285	        -32.75594613	        -34.99623980	          0.17840713	          0.09769747	         18.47062666	         -0.33230912	        -48.46228720	       -557.99854710	        -48.13117820	       -533.93144999	        -88.45671118	       -157.43308910	        172.52760912	        101.14516209	         59.07674867	         90.70261419	         70.84104659	          0.03031827	          0.12948395	          0.01001951	          0.01001524	          0.01447019	          0.21431030	          0.23495378	          0.48126425	          0.33922830	          0.10463109	          0.01224464	          0.01195252	          0.10973696	          0.13126652	          0.01005515	          0.15781788	          0.18108553	          0.01000614	          0.01001225	          0.01002393	          0.01002946	          0.01005045	          0.01016006	          0.11842529	          0.46516076	          0.15286640	          0.17635349	          0.40813693	          0.66714274	          0.09525108	          0.79244114	          0.13713832	          0.06753240	          0.01018381	          0.04590265	          0.41413968	          0.01163867	          0.01000392	          0.01000125	          0.01000281	          0.01045992	          0.01095956	          0.01004794	          0.01020890	          0.01006482	          0.01011010	          0.02622452	          0.33634788	          0.17323528	          0.03803321	          0.03520994	          0.03092281	          0.06884545	          0.04384040	          0.20555650	          0.17951851	          0.01644966	          0.05781881	          0.12777654	          0.12723098	          0.08140971	          0.03237486	          0.22201948	          0.01191337	          0.68664411	          0.07502494	          0.07422732	          0.42114553	          0.18504652	          0.08445352	          0.57283789	          0.15718035	          0.02817465	          0.01713770	          0.11135050	          0.09269096	          0.01336451	          0.01879229	          0.01893066	          0.01792402	
